<mxfile host="www.draw.io" modified="2019-12-21T02:06:59.852Z" agent="Mozilla/5.0 (Windows NT 10.0; Win64; x64) AppleWebKit/537.36 (KHTML, like Gecko) Chrome/78.0.3904.108 Safari/537.36" etag="b5Hh-caJAG_ENsEFQrgV" version="12.4.3" type="github" pages="1">
  <diagram id="E05luGIgBVNeL6oh5AB8" name="Page-1">
    <mxGraphModel dx="1581" dy="845" grid="1" gridSize="10" guides="1" tooltips="1" connect="1" arrows="1" fold="1" page="1" pageScale="1" pageWidth="827" pageHeight="1169" math="0" shadow="0">
      <root>
        <mxCell id="0"/>
        <mxCell id="1" parent="0"/>
        <mxCell id="PJJnslw4Wn_ZsGAr-Ul9-3" value="" style="edgeStyle=orthogonalEdgeStyle;rounded=0;orthogonalLoop=1;jettySize=auto;html=1;" edge="1" parent="1" source="PJJnslw4Wn_ZsGAr-Ul9-1" target="PJJnslw4Wn_ZsGAr-Ul9-2">
          <mxGeometry relative="1" as="geometry"/>
        </mxCell>
        <mxCell id="PJJnslw4Wn_ZsGAr-Ul9-1" value="&lt;font style=&quot;font-size: 16px&quot;&gt;Tinkers&lt;/font&gt;" style="rounded=0;whiteSpace=wrap;html=1;" vertex="1" parent="1">
          <mxGeometry x="10" y="10" width="120" height="60" as="geometry"/>
        </mxCell>
        <mxCell id="PJJnslw4Wn_ZsGAr-Ul9-5" value="" style="edgeStyle=orthogonalEdgeStyle;rounded=0;orthogonalLoop=1;jettySize=auto;html=1;" edge="1" parent="1" source="PJJnslw4Wn_ZsGAr-Ul9-2" target="PJJnslw4Wn_ZsGAr-Ul9-4">
          <mxGeometry relative="1" as="geometry"/>
        </mxCell>
        <mxCell id="PJJnslw4Wn_ZsGAr-Ul9-2" value="&lt;font style=&quot;font-size: 16px&quot;&gt;Forestry&lt;/font&gt;" style="rounded=1;whiteSpace=wrap;html=1;" vertex="1" parent="1">
          <mxGeometry x="10" y="100" width="120" height="60" as="geometry"/>
        </mxCell>
        <mxCell id="PJJnslw4Wn_ZsGAr-Ul9-7" value="" style="edgeStyle=orthogonalEdgeStyle;rounded=0;orthogonalLoop=1;jettySize=auto;html=1;" edge="1" parent="1" source="PJJnslw4Wn_ZsGAr-Ul9-4" target="PJJnslw4Wn_ZsGAr-Ul9-6">
          <mxGeometry relative="1" as="geometry"/>
        </mxCell>
        <mxCell id="PJJnslw4Wn_ZsGAr-Ul9-4" value="&lt;font style=&quot;font-size: 16px&quot;&gt;RailCraft&lt;/font&gt;" style="rounded=1;whiteSpace=wrap;html=1;" vertex="1" parent="1">
          <mxGeometry x="10" y="190" width="120" height="60" as="geometry"/>
        </mxCell>
        <mxCell id="PJJnslw4Wn_ZsGAr-Ul9-9" value="" style="edgeStyle=orthogonalEdgeStyle;rounded=0;orthogonalLoop=1;jettySize=auto;html=1;" edge="1" parent="1" source="PJJnslw4Wn_ZsGAr-Ul9-6" target="PJJnslw4Wn_ZsGAr-Ul9-8">
          <mxGeometry relative="1" as="geometry"/>
        </mxCell>
        <mxCell id="PJJnslw4Wn_ZsGAr-Ul9-6" value="&lt;font style=&quot;font-size: 16px&quot;&gt;Immersive&lt;br&gt;Enginnering&lt;br&gt;&lt;/font&gt;" style="rounded=1;whiteSpace=wrap;html=1;" vertex="1" parent="1">
          <mxGeometry x="10" y="280" width="120" height="60" as="geometry"/>
        </mxCell>
        <mxCell id="PJJnslw4Wn_ZsGAr-Ul9-11" value="" style="edgeStyle=orthogonalEdgeStyle;rounded=0;orthogonalLoop=1;jettySize=auto;html=1;" edge="1" parent="1" source="PJJnslw4Wn_ZsGAr-Ul9-8" target="PJJnslw4Wn_ZsGAr-Ul9-10">
          <mxGeometry relative="1" as="geometry"/>
        </mxCell>
        <mxCell id="PJJnslw4Wn_ZsGAr-Ul9-13" value="" style="edgeStyle=orthogonalEdgeStyle;rounded=0;orthogonalLoop=1;jettySize=auto;html=1;" edge="1" parent="1" source="PJJnslw4Wn_ZsGAr-Ul9-8" target="PJJnslw4Wn_ZsGAr-Ul9-12">
          <mxGeometry relative="1" as="geometry"/>
        </mxCell>
        <mxCell id="PJJnslw4Wn_ZsGAr-Ul9-8" value="&lt;font style=&quot;font-size: 16px&quot;&gt;IC2&lt;br&gt;&lt;/font&gt;" style="rounded=1;whiteSpace=wrap;html=1;" vertex="1" parent="1">
          <mxGeometry x="10" y="360" width="120" height="60" as="geometry"/>
        </mxCell>
        <mxCell id="PJJnslw4Wn_ZsGAr-Ul9-15" value="" style="edgeStyle=orthogonalEdgeStyle;rounded=0;orthogonalLoop=1;jettySize=auto;html=1;" edge="1" parent="1" source="PJJnslw4Wn_ZsGAr-Ul9-12" target="PJJnslw4Wn_ZsGAr-Ul9-14">
          <mxGeometry relative="1" as="geometry"/>
        </mxCell>
        <mxCell id="PJJnslw4Wn_ZsGAr-Ul9-12" value="&lt;font style=&quot;font-size: 16px&quot;&gt;Ender IO&lt;br&gt;&lt;br&gt;&lt;/font&gt;" style="rounded=1;whiteSpace=wrap;html=1;" vertex="1" parent="1">
          <mxGeometry x="160" y="360" width="120" height="60" as="geometry"/>
        </mxCell>
        <mxCell id="PJJnslw4Wn_ZsGAr-Ul9-14" value="&lt;font style=&quot;font-size: 16px&quot;&gt;Mekanism&lt;br&gt;&lt;/font&gt;" style="rounded=1;whiteSpace=wrap;html=1;" vertex="1" parent="1">
          <mxGeometry x="160" y="450" width="120" height="60" as="geometry"/>
        </mxCell>
        <mxCell id="PJJnslw4Wn_ZsGAr-Ul9-16" value="" style="edgeStyle=orthogonalEdgeStyle;rounded=0;orthogonalLoop=1;jettySize=auto;html=1;" edge="1" parent="1" source="PJJnslw4Wn_ZsGAr-Ul9-10" target="PJJnslw4Wn_ZsGAr-Ul9-14">
          <mxGeometry relative="1" as="geometry"/>
        </mxCell>
        <mxCell id="PJJnslw4Wn_ZsGAr-Ul9-10" value="&lt;font style=&quot;font-size: 16px&quot;&gt;GregTech&lt;br&gt;&lt;/font&gt;" style="rounded=1;whiteSpace=wrap;html=1;" vertex="1" parent="1">
          <mxGeometry x="10" y="450" width="120" height="60" as="geometry"/>
        </mxCell>
      </root>
    </mxGraphModel>
  </diagram>
</mxfile>
